Coordinates
version=1
nRows=49
nColumns=12
inDegrees=yes

Units are S.I. units (second, meters, Newtons, ...)
Angles are in degrees

endheader
time	SC_y	SC_z	SC_x	AC_y	AC_z	AC_x	GH_y	GH_z	GH_yy	EL_x	PS_y
       0.0               -36.1           2.41          19.01           40.3          4.106          4.181         -146.9          64.21          6.222          128.3          65.31
  0.007534               -36.1          2.415          19.01           40.3          4.103          4.181         -146.9          64.21          6.224          128.3          65.32
   0.01507              -36.11          2.421          19.01           40.3            4.1          4.181         -146.8          64.21          6.226          128.3          65.33
    0.0226              -36.11          2.427          19.02           40.3          4.097           4.18         -146.8          64.21          6.228          128.3          65.33
   0.03014              -36.11          2.434          19.02           40.3          4.094           4.18         -146.7          64.21          6.231          128.2          65.34
   0.03767              -36.12          2.441          19.03          40.31          4.091          4.179         -146.7          64.21          6.233          128.2          65.34
    0.0452              -36.12          2.448          19.03          40.31          4.087          4.179         -146.6           64.2          6.236          128.2          65.35
   0.05274              -36.13          2.456          19.04          40.31          4.084          4.178         -146.5           64.2          6.239          128.2          65.36
   0.06027              -36.13          2.465          19.04          40.31           4.08          4.177         -146.5           64.2          6.242          128.2          65.37
    0.0678              -36.14          2.474          19.05          40.32          4.075          4.177         -146.4           64.2          6.246          128.2          65.37
   0.07534              -36.14          2.484          19.05          40.32          4.071          4.176         -146.3           64.2           6.25          128.2          65.38
   0.08287              -36.15          2.494          19.06          40.32          4.066          4.175         -146.2          64.19          6.254          128.2          65.39
   0.09041              -36.16          2.506          19.06          40.32           4.06          4.174         -146.1          64.19          6.258          128.2          65.41
   0.09794              -36.16          2.518          19.07          40.33          4.055          4.173         -146.0          64.19          6.263          128.2          65.42
    0.1055              -36.17          2.531          19.08          40.33          4.048          4.173         -145.9          64.19          6.268          128.2          65.43
     0.113              -36.18          2.546          19.09          40.34          4.042          4.171         -145.8          64.18          6.273          128.2          65.44
    0.1205              -36.19          2.561           19.1          40.34          4.034           4.17         -145.6          64.18          6.279          128.2          65.46
    0.1281               -36.2          2.578          19.11          40.35          4.026          4.169         -145.5          64.18          6.286          128.1          65.47
    0.1356              -36.21          2.597          19.12          40.35          4.017          4.168         -145.3          64.17          6.293          128.1          65.49
    0.1431              -36.22          2.618          19.13          40.36          4.008          4.166         -145.1          64.17            6.3          128.1          65.51
    0.1507              -36.24           2.64          19.15          40.36          3.997          4.164         -144.9          64.16          6.309          128.1          65.53
    0.1582              -36.25          2.665          19.16          40.37          3.985          4.163         -144.7          64.16          6.318          128.1          65.56
    0.1657              -36.27          2.692          19.18          40.38          3.973          4.161         -144.5          64.15          6.329          128.1          65.58
    0.1733              -36.29          2.722           19.2          40.39          3.958          4.158         -144.2          64.15           6.34          128.0          65.61
    0.1808              -36.31          2.756          19.22           40.4          3.943          4.156         -143.9          64.14          6.353          128.0          65.64
    0.1883              -36.33          2.793          19.24          40.41          3.925          4.153         -143.6          64.13          6.367          128.0          65.68
    0.1959              -36.35          2.835          19.26          40.42          3.905           4.15         -143.3          64.12          6.383          127.9          65.72
    0.2034              -36.38          2.883          19.29          40.43          3.883          4.147         -142.8          64.11          6.401          127.9          65.76
    0.2109              -36.41          2.936          19.32          40.45          3.858          4.143         -142.4           64.1          6.421          127.9          65.81
    0.2185              -36.45          2.997          19.36          40.46          3.829          4.138         -141.9          64.09          6.444          127.8          65.87
     0.226              -36.49          3.066           19.4          40.48          3.797          4.133         -141.3          64.07           6.47          127.8          65.93
    0.2335              -36.54          3.145          19.45           40.5          3.759          4.127         -140.6          64.05            6.5          127.7          66.01
    0.2411               -36.6          3.237           19.5          40.53          3.716           4.12         -139.8          64.03          6.535          127.6           66.1
    0.2486              -36.66          3.344          19.57          40.56          3.666          4.112         -138.8          64.01          6.575          127.6           66.2
    0.2561              -36.73          3.468          19.64           40.6          3.607          4.103         -137.8          63.98          6.623          127.5          66.31
    0.2637              -36.82          3.615          19.73          40.64          3.538          4.092         -136.5          63.95          6.678          127.4          66.45
    0.2712              -36.93           3.79          19.84          40.69          3.456          4.079         -135.0          63.91          6.744          127.2          66.62
    0.2787              -37.05          3.999          19.96          40.75          3.357          4.064         -133.2          63.87          6.824          127.1          66.82
    0.2863               -37.2          4.253          20.12          40.82          3.238          4.045         -131.0          63.81           6.92          126.9          67.05
    0.2938              -37.39          4.562           20.3           40.9          3.092          4.022         -128.3          63.74          7.037          126.6          67.35
    0.3014              -37.62          4.944          20.53          41.01          2.912          3.994         -125.0          63.66          7.182          126.3          67.71
    0.3089               -37.9           5.42          20.82          41.15          2.688          3.959         -120.8          63.56          7.362          126.0          68.16
    0.3164              -38.26           6.02          21.18          41.31          2.405          3.914         -115.6          63.43          7.589          125.5          68.72
     0.324              -38.72          6.783          21.64          41.53          2.046          3.858         -109.0          63.26          7.878          125.0          69.44
    0.3315              -39.31          7.759          22.22           41.8          1.586          3.786         -100.5          63.05          8.248          124.2          70.37
     0.339              -40.06          9.012          22.98          42.16         0.9966          3.693         -89.68          62.78          8.722          123.3          71.55
    0.3466              -41.02          10.61          23.94          42.61          0.243          3.575         -75.81          62.43          9.328          122.1          73.06
    0.3541              -42.23          12.62          25.15          43.17        -0.7045          3.426         -58.35          61.99          10.09          120.5          74.96
    0.3616               -43.7          15.08          26.62          43.86         -1.859          3.245         -37.09          61.46          11.02          118.7          77.27
